<svg xmlns="http://www.w3.org/2000/svg" viewBox="0 0 336.22 271.76"><defs><style>.cls-1{fill:#7854a3;}.cls-2{fill:#583393;}.cls-3{fill:#fff;}</style></defs><g id="Layer_2" data-name="Layer 2"><g id="Layer_1-2" data-name="Layer 1"><g id="Layer_2-2" data-name="Layer 2"><g id="Layer_8" data-name="Layer 8"><g id="Logo"><path id="Body" class="cls-1" d="M218.58,102.74H200.09A117.64,117.64,0,0,0,82.45,220.38h0v51.38H158V252a51.39,51.39,0,0,1,51.39-51.39h0A51.39,51.39,0,0,1,260.73,252v19.76h75.49V220.38A117.64,117.64,0,0,0,218.58,102.74Z"/><path id="Head" class="cls-2" d="M11.82,241.72H50l-2.31-50.06,86.82.68c50.27,0,105-39.11,105-89.38L249.72,1.78C231.05,1.78,108.33,0,108.33,0,48.75,0,0,48.75,0,108.33V112"/><circle id="Eye" class="cls-3" cx="53.51" cy="124.86" r="12.02"/></g></g></g></g></g></svg>